<?xml version="1.0" encoding="UTF-8"?>
<svg viewBox="0 0 100 124" class="" role="img" aria-label="ST. MORITZ destination stamp"><defs><linearGradient id="paper-grad-st-moritz-ch-gr-ski" x1="0%" y1="0%" x2="0%" y2="100%"><stop offset="0%" stop-color="#F3EBDD"></stop><stop offset="100%" stop-color="#ebe1d0"></stop></linearGradient><linearGradient id="sky-grad-st-moritz-ch-gr-ski" x1="0%" y1="0%" x2="0%" y2="100%"><stop offset="0%" stop-color="#577BA0"></stop><stop offset="100%" stop-color="#8dafd0"></stop></linearGradient><clipPath id="art-clip-st-moritz-ch-gr-ski"><rect x="6" y="8" width="88" height="72" rx="3.2"></rect></clipPath><filter id="grain-st-moritz-ch-gr-ski"><feTurbulence type="fractalNoise" baseFrequency="0.85" numOctaves="3" result="noise"></feTurbulence><feColorMatrix type="saturate" values="0" in="noise" result="grey"></feColorMatrix><feBlend in="SourceGraphic" in2="grey" mode="multiply"></feBlend></filter></defs><rect x="1.5" y="1.5" width="97" height="121" rx="5" fill="url(#paper-grad-st-moritz-ch-gr-ski)" stroke="#6E5340" stroke-width="1.5" stroke-dasharray="4 3"></rect><g clip-path="url(#art-clip-st-moritz-ch-gr-ski)"><rect x="6" y="8" width="88" height="72" fill="url(#sky-grad-st-moritz-ch-gr-ski)"></rect><g><circle cx="72" cy="17" r="11.2" fill="#E1A354" opacity="0.9"></circle><path d="M6.0 59.4 L18.6 46.9 L31.1 41.3 L43.7 64.2 L56.3 64.8 L68.9 64.5 L81.4 58.3 L94.0 47.4 L94 80 L6 80 Z" fill="#7D8F96"></path><path d="M6.0 69.6 L18.6 55.6 L31.1 48.1 L43.7 69.8 L56.3 68.5 L68.9 64.6 L81.4 53.2 L94.0 49.6 L94 80 L6 80 Z" fill="#597183"></path><path d="M6.0 78.0 L18.6 55.7 L31.1 64.4 L43.7 78.0 L56.3 78.0 L68.9 67.8 L81.4 47.2 L94.0 77.8 L94 80 L6 80 Z" fill="#2c4358"></path><path d="M6 73 C 23 67, 44 79, 94 74 L94 80 L6 80 Z" fill="#e4eaf0" opacity="0.98"></path><path d="M6 83 C 22 81, 45 92, 94 87 L94 80 L6 80 Z" fill="#e2e8e7" opacity="0.9"></path><g stroke="#d3dde7" stroke-width="1.05" stroke-linecap="round" fill="none" opacity="0.85"><path d="M10 75 C 22 78, 38 85, 58 94"></path><path d="M24 74 C 35 81, 52 88, 76 97"></path><path d="M43 75 C 56 83, 71 91, 90 101"></path></g><g stroke="#d9dee4" stroke-width="0.9" stroke-linecap="round" fill="none" opacity="0.72"><path d="M14 82 C 27 87, 44 93, 61 101"></path><path d="M31 81 C 45 87, 62 94, 82 103"></path></g><g opacity="0.98"><circle cx="56.7" cy="64.6" r="6.4" fill="#EEC9AA"></circle><path d="M49.9 62.8 C 53.1 59.7, 60.6 59.9, 63.6 63.2 L 62.8 65.1 L 50.4 65.1 Z" fill="#5b473c"></path><circle cx="54.2" cy="64.8" r="2.5" fill="#2a4a6b"></circle><circle cx="59.8" cy="64.8" r="2.5" fill="#2a4a6b"></circle><rect x="56.1" y="64.3" width="1.8" height="1" rx="0.45" fill="#9a8779"></rect><circle cx="53.4" cy="64.2" r="0.6" fill="#cdd9e3" opacity="0.82"></circle><circle cx="59" cy="64.2" r="0.6" fill="#cdd9e3" opacity="0.82"></circle><path d="M47.6 76.8 C 50.7 69.2, 62.3 68.6, 67.9 76.9 L 64.3 86.6 L 49.5 86.6 Z" fill="#8f5b57"></path><path d="M51.2 75.8 L58.3 78.1 L54.8 81.1 Z" fill="#de463b" opacity="0.9"></path><path d="M51 86.4 L47.5 93.6 L52.3 94 L56.2 86.4 Z" fill="#8a7466"></path><path d="M63 86.4 L59.6 94.1 L64.4 94.4 L67.7 86.4 Z" fill="#8a7466"></path><path d="M46.7 93.6 L74.5 103.2" stroke="#836e60" stroke-width="1.6" stroke-linecap="round"></path><path d="M45 95.5 L72.9 105.3" stroke="#917c6e" stroke-width="1.45" stroke-linecap="round"></path><path d="M51 81.1 L47.2 91" stroke="#958275" stroke-width="1" stroke-linecap="round"></path><path d="M67.2 80.4 L71.2 89.2" stroke="#958275" stroke-width="1" stroke-linecap="round"></path><circle cx="74.2" cy="97.7" r="1.15" fill="#fefefe"></circle><circle cx="76.8" cy="99.3" r="1.25" fill="#fefefe"></circle><circle cx="79.1" cy="101.1" r="1.05" fill="#fefefe"></circle></g></g></g><rect x="6" y="8" width="88" height="72" rx="3.2" fill="none" stroke="#978375" stroke-width="0.8"></rect><g><rect x="76" y="8.5" width="14" height="14" rx="1" fill="#DA291C"></rect><rect x="81.35" y="10.6" width="3.3" height="9.7" fill="#F8FAFC" rx="0.45"></rect><rect x="78.2" y="13.8" width="9.6" height="3.3" fill="#F8FAFC" rx="0.45"></rect></g><text x="50" y="95" fill="#1E293B" text-anchor="middle" font-size="18.2" lengthAdjust="spacingAndGlyphs" textLength="84" style="font-family:&quot;Bebas Neue&quot;, sans-serif;letter-spacing:1.5px">ST. MORITZ</text><text x="50" y="107.2" fill="#4B5563" text-anchor="middle" font-size="7.8" style="font-family:&quot;Jost&quot;, sans-serif;font-weight:500;letter-spacing:1.05px">· ENGADIN, GR ·</text><rect x="3" y="3" width="94" height="118" rx="4" fill="#000" opacity="0.08" filter="url(#grain-st-moritz-ch-gr-ski)"></rect></svg>