<?xml version="1.0" encoding="UTF-8"?>
<svg viewBox="0 0 100 124" class="" role="img" aria-label="ST. MORITZ destination stamp"><defs><linearGradient id="paper-grad-st-moritz-ch-gr-ski" x1="0%" y1="0%" x2="0%" y2="100%"><stop offset="0%" stop-color="#F3EBDD"></stop><stop offset="100%" stop-color="#ebe1d0"></stop></linearGradient><linearGradient id="sky-grad-st-moritz-ch-gr-ski" x1="0%" y1="0%" x2="0%" y2="100%"><stop offset="0%" stop-color="#577BA0"></stop><stop offset="100%" stop-color="#8dafd0"></stop></linearGradient><clipPath id="art-clip-st-moritz-ch-gr-ski"><rect x="6" y="8" width="88" height="72" rx="3.2"></rect></clipPath><filter id="grain-st-moritz-ch-gr-ski"><feTurbulence type="fractalNoise" baseFrequency="0.85" numOctaves="3" result="noise"></feTurbulence><feColorMatrix type="saturate" values="0" in="noise" result="grey"></feColorMatrix><feBlend in="SourceGraphic" in2="grey" mode="multiply"></feBlend></filter></defs><rect x="1.5" y="1.5" width="97" height="121" rx="5" fill="url(#paper-grad-st-moritz-ch-gr-ski)" stroke="#6E5340" stroke-width="1.5" stroke-dasharray="4 3"></rect><g clip-path="url(#art-clip-st-moritz-ch-gr-ski)"><rect x="6" y="8" width="88" height="72" fill="url(#sky-grad-st-moritz-ch-gr-ski)"></rect><g><circle cx="72" cy="17" r="11.2" fill="#E1A354" opacity="0.9"></circle><path d="M6.0 59.4 L18.6 46.9 L31.1 41.3 L43.7 64.2 L56.3 64.8 L68.9 64.5 L81.4 58.3 L94.0 47.4 L94 80 L6 80 Z" fill="#7D8F96"></path><path d="M6.0 69.6 L18.6 55.6 L31.1 48.1 L43.7 69.8 L56.3 68.5 L68.9 64.6 L81.4 53.2 L94.0 49.6 L94 80 L6 80 Z" fill="#597183"></path><path d="M6.0 78.0 L18.6 55.7 L31.1 64.4 L43.7 78.0 L56.3 78.0 L68.9 67.8 L81.4 47.2 L94.0 77.8 L94 80 L6 80 Z" fill="#2c4257"></path><path d="M6 72 C 22 65, 42 77, 94 73 L94 80 L6 80 Z" fill="#e6ebf1" opacity="0.98"></path><path d="M6 82 C 22 79, 44 90, 94 85 L94 80 L6 80 Z" fill="#e0e6e6" opacity="0.92"></path><path d="M6 90 C 24 89, 48 96, 94 94 L94 80 L6 80 Z" fill="#ededef" opacity="0.9"></path><g stroke="#cfdae4" stroke-width="1.05" stroke-linecap="round" fill="none" opacity="0.85"><path d="M10 74 C 22 77, 38 84, 58 93"></path><path d="M24 73 C 35 80, 52 87, 76 96"></path><path d="M43 74 C 56 82, 71 90, 90 100"></path></g><g stroke="#d1d7de" stroke-width="0.9" stroke-linecap="round" fill="none" opacity="0.72"><path d="M14 81 C 27 86, 44 92, 61 100"></path><path d="M31 80 C 45 86, 62 93, 82 102"></path></g><g opacity="0.98"><circle cx="55.6" cy="65.4" r="4.5" fill="#EDC7A7"></circle><path d="M50.6 64.1 C 52.2 60.7, 58.8 60.5, 60.8 64.2 L60.1 66.3 L51 66.3 Z" fill="#55433a"></path><circle cx="53.8" cy="65.2" r="1.9" fill="#284666"></circle><circle cx="57.6" cy="65.2" r="1.9" fill="#284666"></circle><rect x="55.1" y="64.8" width="1.2" height="0.8" rx="0.4" fill="#9a8779"></rect><circle cx="53.2" cy="64.7" r="0.45" fill="#d7e0e8" opacity="0.8"></circle><circle cx="57" cy="64.7" r="0.45" fill="#d7e0e8" opacity="0.8"></circle><path d="M50.2 76.3 C 52 70.4, 59.8 70.4, 63.3 76.8 L60.7 85.8 L51.2 85.8 Z" fill="#96433c"></path><path d="M52 85.5 L49.3 92.2 L52.4 92.6 L55.2 85.6 Z" fill="#8a7466"></path><path d="M59.6 85.6 L57.2 92.5 L60.2 92.8 L62.8 85.7 Z" fill="#8a7466"></path><path d="M50.9 78.8 L47.7 87.8" stroke="#927e71" stroke-width="0.95" stroke-linecap="round"></path><path d="M62.2 78.4 L65.4 85.2" stroke="#927e71" stroke-width="0.95" stroke-linecap="round"></path><path d="M47 88.2 L44.6 98.8" stroke="#806a5c" stroke-width="0.82" stroke-linecap="round"></path><path d="M65.1 85.7 L67.1 96.2" stroke="#806a5c" stroke-width="0.82" stroke-linecap="round"></path><path d="M47.2 93.8 L75.4 103.6" stroke="#857163" stroke-width="1.55" stroke-linecap="round"></path><path d="M45.8 95.8 L74.1 105.9" stroke="#917c6e" stroke-width="1.45" stroke-linecap="round"></path><g opacity="0.84"><circle cx="76.5" cy="70.7" r="2.7" fill="#E7C3A3"></circle><path d="M73.7 69.8 C 74.6 67.9, 78.6 68, 79.4 70 L79 71.2 L74 71.2 Z" fill="#53423a"></path><rect x="74.1" y="70.4" width="4.9" height="1.2" rx="0.6" fill="#2a4a6c"></rect><path d="M73.5 79.2 C 74.5 75.2, 79.3 75.1, 81 79.4 L79 85.4 L74.4 85.4 Z" fill="#273b50"></path><path d="M72.7 85.4 L79.3 89.2 L81.6 85.2 L75.1 81.8 Z" fill="#7e6859"></path><path d="M70.8 89.4 L84.6 93.9 L85.7 92.1 L71.7 87.6 Z" fill="#293d52"></path></g><circle cx="73.6" cy="96.2" r="1.1" fill="#fefefe"></circle><circle cx="76.1" cy="97.6" r="1.25" fill="#fefefe"></circle><circle cx="78.7" cy="99.4" r="1.05" fill="#fefefe"></circle></g></g></g><rect x="6" y="8" width="88" height="72" rx="3.2" fill="none" stroke="#978375" stroke-width="0.8"></rect><g><rect x="76" y="8.5" width="14" height="14" rx="1" fill="#DA291C"></rect><rect x="81.35" y="10.6" width="3.3" height="9.7" fill="#F8FAFC" rx="0.45"></rect><rect x="78.2" y="13.8" width="9.6" height="3.3" fill="#F8FAFC" rx="0.45"></rect></g><text x="50" y="95" fill="#1E293B" text-anchor="middle" font-size="18.2" lengthAdjust="spacingAndGlyphs" textLength="84" style="font-family:&quot;Bebas Neue&quot;, sans-serif;letter-spacing:1.5px">ST. MORITZ</text><text x="50" y="107.2" fill="#4B5563" text-anchor="middle" font-size="7.8" style="font-family:&quot;Jost&quot;, sans-serif;font-weight:500;letter-spacing:1.05px">· ENGADIN, GR ·</text><rect x="3" y="3" width="94" height="118" rx="4" fill="#000" opacity="0.08" filter="url(#grain-st-moritz-ch-gr-ski)"></rect></svg>