<?xml version="1.0" encoding="UTF-8"?>
<svg viewBox="0 0 100 124" class="" role="img" aria-label="ST. MORITZ destination stamp"><defs><linearGradient id="paper-grad-st-moritz-ch-gr-ski" x1="0%" y1="0%" x2="0%" y2="100%"><stop offset="0%" stop-color="#F3EBDD"></stop><stop offset="100%" stop-color="#ebe1d0"></stop></linearGradient><linearGradient id="sky-grad-st-moritz-ch-gr-ski" x1="0%" y1="0%" x2="0%" y2="100%"><stop offset="0%" stop-color="#577BA0"></stop><stop offset="100%" stop-color="#8dafd0"></stop></linearGradient><clipPath id="art-clip-st-moritz-ch-gr-ski"><rect x="6" y="8" width="88" height="72" rx="3.2"></rect></clipPath><filter id="grain-st-moritz-ch-gr-ski"><feTurbulence type="fractalNoise" baseFrequency="0.85" numOctaves="3" result="noise"></feTurbulence><feColorMatrix type="saturate" values="0" in="noise" result="grey"></feColorMatrix><feBlend in="SourceGraphic" in2="grey" mode="multiply"></feBlend></filter></defs><rect x="1.5" y="1.5" width="97" height="121" rx="5" fill="url(#paper-grad-st-moritz-ch-gr-ski)" stroke="#6E5340" stroke-width="1.5" stroke-dasharray="4 3"></rect><g clip-path="url(#art-clip-st-moritz-ch-gr-ski)"><rect x="6" y="8" width="88" height="72" fill="url(#sky-grad-st-moritz-ch-gr-ski)"></rect><g><circle cx="72" cy="17" r="11.2" fill="#E1A354" opacity="0.92"></circle><path d="M6.0 59.4 L18.6 46.9 L31.1 41.3 L43.7 64.2 L56.3 64.8 L68.9 64.5 L81.4 58.3 L94.0 47.4 L94 80 L6 80 Z" fill="#7D8F96"></path><path d="M6.0 69.6 L18.6 55.6 L31.1 48.1 L43.7 69.8 L56.3 68.5 L68.9 64.6 L81.4 53.2 L94.0 49.6 L94 80 L6 80 Z" fill="#597183"></path><path d="M6.0 78.0 L18.6 55.7 L31.1 64.4 L43.7 78.0 L56.3 78.0 L68.9 67.8 L81.4 47.2 L94.0 77.8 L94 80 L6 80 Z" fill="#2F475C"></path><g fill="#F5F7FA" opacity="0.95"><path d="M77.8 52.5 L81.0 48.0 L84.2 52.5 Z"></path><path d="M27.5 53.4 L30.7 48.9 L33.9 53.4 Z"></path><path d="M91.2 54.9 L94.4 50.4 L97.6 54.9 Z"></path><path d="M78.6 58.5 L81.8 54.0 L85.0 58.5 Z"></path><path d="M15.1 60.9 L18.3 56.4 L21.5 60.9 Z"></path><path d="M14.9 61.0 L18.1 56.5 L21.3 61.0 Z"></path></g><path d="M6 80 C 18 74, 34 83, 48 76 C 63 70, 77 81, 94 78 L94 80 L6 80 Z" fill="#628169" opacity="0.8"></path><path d="M6 74 C 23 70, 39 79, 55 75 C 69 72, 80 76, 94 74 L 94 80 L 6 80 Z" fill="#38658e" opacity="0.86"></path><g opacity="0.96"><g fill="#283c51"><rect x="18" y="71.6" width="8.5" height="4.4"></rect><rect x="28.3" y="69" width="6.1" height="7"></rect><rect x="36.5" y="70.8" width="9" height="5.2"></rect><rect x="47.4" y="67.8" width="5.8" height="8.2"></rect></g></g><g opacity="0.9"><path d="M8 83 L92 81" stroke="#77899a" stroke-width="1.4" stroke-linecap="round" fill="none"></path><path d="M8 85.1 L92 83.1" stroke="#77899a" stroke-width="1.15" stroke-linecap="round" fill="none"></path><path d="M12.0 82.7 L12.0 85.5" stroke="#5e6e7f" stroke-width="0.9" stroke-linecap="round"></path><path d="M22.5 82.5 L22.5 85.3" stroke="#5e6e7f" stroke-width="0.9" stroke-linecap="round"></path><path d="M33.0 82.2 L33.0 85.0" stroke="#5e6e7f" stroke-width="0.9" stroke-linecap="round"></path><path d="M43.5 82.0 L43.5 84.8" stroke="#5e6e7f" stroke-width="0.9" stroke-linecap="round"></path><path d="M54.0 81.7 L54.0 84.5" stroke="#5e6e7f" stroke-width="0.9" stroke-linecap="round"></path><path d="M64.5 81.5 L64.5 84.3" stroke="#5e6e7f" stroke-width="0.9" stroke-linecap="round"></path><path d="M75.0 81.2 L75.0 84.0" stroke="#5e6e7f" stroke-width="0.9" stroke-linecap="round"></path><path d="M85.5 81.0 L85.5 83.8" stroke="#5e6e7f" stroke-width="0.9" stroke-linecap="round"></path></g><g opacity="0.96"><circle cx="72" cy="65" r="3.9" fill="#EBC0A1"></circle><rect x="68.7" y="64.2" width="6.8" height="2.2" rx="1.1" fill="#2c4e70"></rect><path d="M67 72.2 C 69 69.4, 75 69.3, 78 72.2 L 75.5 78.5 L 69.5 78.5 Z" fill="#925f5a"></path><path d="M66.5 79 L79.4 85.2" stroke="#857163" stroke-width="1.1" stroke-linecap="round"></path><path d="M65.2 80.2 L78.2 86.2" stroke="#8f7b6d" stroke-width="1.05" stroke-linecap="round"></path></g><g fill="#425951" opacity="0.95"><path d="M68 79 L71 73 L74 79 Z"></path><path d="M73 79 L76 72 L79 79 Z"></path><path d="M78 79 L81 74 L84 79 Z"></path></g></g></g><rect x="6" y="8" width="88" height="72" rx="3.2" fill="none" stroke="#978375" stroke-width="0.8"></rect><g><rect x="76" y="8.5" width="14" height="14" rx="1" fill="#DA291C"></rect><rect x="81.35" y="10.6" width="3.3" height="9.7" fill="#F8FAFC" rx="0.45"></rect><rect x="78.2" y="13.8" width="9.6" height="3.3" fill="#F8FAFC" rx="0.45"></rect></g><text x="50" y="95" fill="#1E293B" text-anchor="middle" font-size="18.2" lengthAdjust="spacingAndGlyphs" textLength="84" style="font-family:&quot;Bebas Neue&quot;, sans-serif;letter-spacing:1.5px">ST. MORITZ</text><text x="50" y="107.2" fill="#4B5563" text-anchor="middle" font-size="7.8" style="font-family:&quot;Jost&quot;, sans-serif;font-weight:500;letter-spacing:1.05px">· ENGADIN, GR ·</text><rect x="3" y="3" width="94" height="118" rx="4" fill="#000" opacity="0.08" filter="url(#grain-st-moritz-ch-gr-ski)"></rect></svg>