<?xml version="1.0" encoding="UTF-8"?>
<svg viewBox="0 0 100 124" class="" role="img" aria-label="ST. MORITZ destination stamp"><defs><linearGradient id="paper-grad-st-moritz-ch-gr-ski" x1="0%" y1="0%" x2="0%" y2="100%"><stop offset="0%" stop-color="#F3EBDD"></stop><stop offset="100%" stop-color="#ebe1d0"></stop></linearGradient><linearGradient id="sky-grad-st-moritz-ch-gr-ski" x1="0%" y1="0%" x2="0%" y2="100%"><stop offset="0%" stop-color="#577BA0"></stop><stop offset="100%" stop-color="#8dafd0"></stop></linearGradient><clipPath id="art-clip-st-moritz-ch-gr-ski"><rect x="6" y="8" width="88" height="72" rx="3.2"></rect></clipPath><filter id="grain-st-moritz-ch-gr-ski"><feTurbulence type="fractalNoise" baseFrequency="0.85" numOctaves="3" result="noise"></feTurbulence><feColorMatrix type="saturate" values="0" in="noise" result="grey"></feColorMatrix><feBlend in="SourceGraphic" in2="grey" mode="multiply"></feBlend></filter></defs><rect x="1.5" y="1.5" width="97" height="121" rx="5" fill="url(#paper-grad-st-moritz-ch-gr-ski)" stroke="#6E5340" stroke-width="1.5" stroke-dasharray="4 3"></rect><g clip-path="url(#art-clip-st-moritz-ch-gr-ski)"><rect x="6" y="8" width="88" height="72" fill="url(#sky-grad-st-moritz-ch-gr-ski)"></rect><g><circle cx="80" cy="24" r="11.2" fill="#E1A354" opacity="0.92"></circle><path d="M6 64 C 20 45, 33 49, 48 43 C 62 51, 77 46, 94 62 L 94 80 L 6 80 Z" fill="#7D8F96"></path><path d="M6 70 C 17 57, 28 65, 42 55 C 58 66, 76 55, 94 70 L 94 80 L 6 80 Z" fill="#597183"></path><path d="M6 80 C 20 56, 37 80, 52 55 C 66 81, 80 55, 94 80 L 94 80 L 6 80 Z" fill="#2F475C"></path><g fill="#F5F7FA" opacity="0.92"><path d="M34 46 L39 55 L30 55 Z"></path><path d="M56 42 L62 53 L51 53 Z"></path><path d="M73 45 L78 54 L69 54 Z"></path></g><path d="M6 82 C 24 76, 45 85, 64 78 C 75 75, 84 79, 94 81 L94 80 L6 80 Z" fill="#628169" opacity="0.78"></path><path d="M6 76 C 23 72, 39 81, 55 77 C 69 74, 80 78, 94 76 L 94 80 L 6 80 Z" fill="#38658e" opacity="0.85"></path><g opacity="0.95"><path d="M18 79 L22 75 L26 79 Z" fill="#834944"></path><rect x="19.4" y="79" width="5.1" height="4.8" fill="#a27773"></rect><path d="M28 79 L32 74 L37 79 Z" fill="#834944"></path><rect x="29.8" y="79" width="5.8" height="5.8" fill="#9e716d"></rect><path d="M39 79 L43 71 L47 79 Z" fill="#834944"></path><rect x="41.2" y="79" width="4.3" height="7.2" fill="#9c6d69"></rect></g><g fill="#425951" opacity="0.95"><path d="M68 81 L71 75 L74 81 Z"></path><path d="M73 81 L76 74 L79 81 Z"></path><path d="M78 81 L81 76 L84 81 Z"></path></g></g></g><rect x="6" y="8" width="88" height="72" rx="3.2" fill="none" stroke="#978375" stroke-width="0.8"></rect><g><rect x="76" y="8.5" width="14" height="14" rx="1" fill="#DA291C"></rect><rect x="81.35" y="10.6" width="3.3" height="9.7" fill="#F8FAFC" rx="0.45"></rect><rect x="78.2" y="13.8" width="9.6" height="3.3" fill="#F8FAFC" rx="0.45"></rect></g><text x="50" y="95" fill="#1E293B" text-anchor="middle" font-size="18.2" lengthAdjust="spacingAndGlyphs" textLength="84" style="font-family:&quot;Bebas Neue&quot;, sans-serif;letter-spacing:1.5px">ST. MORITZ</text><text x="50" y="107.2" fill="#4B5563" text-anchor="middle" font-size="7.8" style="font-family:&quot;Jost&quot;, sans-serif;font-weight:500;letter-spacing:1.05px">· ENGADIN, GR ·</text><rect x="3" y="3" width="94" height="118" rx="4" fill="#000" opacity="0.08" filter="url(#grain-st-moritz-ch-gr-ski)"></rect></svg>