<?xml version="1.0" encoding="UTF-8"?>
<svg viewBox="0 0 100 124" class="" role="img" aria-label="ST. MORITZ destination stamp"><defs><linearGradient id="paper-grad-st-moritz-ch-gr-ski" x1="0%" y1="0%" x2="0%" y2="100%"><stop offset="0%" stop-color="#F3EBDD"></stop><stop offset="100%" stop-color="#ebe1d0"></stop></linearGradient><linearGradient id="sky-grad-st-moritz-ch-gr-ski" x1="0%" y1="0%" x2="0%" y2="100%"><stop offset="0%" stop-color="#577BA0"></stop><stop offset="100%" stop-color="#8dafd0"></stop></linearGradient><clipPath id="art-clip-st-moritz-ch-gr-ski"><rect x="6" y="8" width="88" height="72" rx="3.2"></rect></clipPath><filter id="grain-st-moritz-ch-gr-ski"><feTurbulence type="fractalNoise" baseFrequency="0.85" numOctaves="3" result="noise"></feTurbulence><feColorMatrix type="saturate" values="0" in="noise" result="grey"></feColorMatrix><feBlend in="SourceGraphic" in2="grey" mode="multiply"></feBlend></filter></defs><rect x="1.5" y="1.5" width="97" height="121" rx="5" fill="url(#paper-grad-st-moritz-ch-gr-ski)" stroke="#6E5340" stroke-width="1.5" stroke-dasharray="4 3"></rect><g clip-path="url(#art-clip-st-moritz-ch-gr-ski)"><rect x="6" y="8" width="88" height="72" fill="url(#sky-grad-st-moritz-ch-gr-ski)"></rect><g><circle cx="72" cy="17" r="11.2" fill="#E1A354" opacity="0.9"></circle><path d="M6.0 59.4 L18.6 46.9 L31.1 41.3 L43.7 64.2 L56.3 64.8 L68.9 64.5 L81.4 58.3 L94.0 47.4 L94 80 L6 80 Z" fill="#7D8F96"></path><path d="M6.0 69.6 L18.6 55.6 L31.1 48.1 L43.7 69.8 L56.3 68.5 L68.9 64.6 L81.4 53.2 L94.0 49.6 L94 80 L6 80 Z" fill="#597183"></path><path d="M6.0 78.0 L18.6 55.7 L31.1 64.4 L43.7 78.0 L56.3 78.0 L68.9 67.8 L81.4 47.2 L94.0 77.8 L94 80 L6 80 Z" fill="#2F475C"></path><path d="M6 78 C 24 74, 46 84, 94 79 L94 80 L6 80 Z" fill="#dee5ed" opacity="0.96"></path><path d="M6 82 C 22 80, 43 86, 94 83 L94 80 L6 80 Z" fill="#dbe2e0" opacity="0.86"></path><g opacity="0.98"><circle cx="57" cy="66" r="5.3" fill="#EEC9AA"></circle><rect x="50.7" y="63.6" width="12.6" height="3.1" rx="1.55" fill="#2d5174"></rect><path d="M49.8 76.2 C 53.2 69.6, 61.6 69.4, 66.7 76.3 L 63.6 84.2 L 52.1 84.2 Z" fill="#94625e"></path><path d="M52.6 84.1 L49.4 90.3 L53.6 90.8 L57.2 84.2 Z" fill="#8a7466"></path><path d="M62.2 84.1 L59.3 90.6 L63.5 91 L66.8 84.2 Z" fill="#8a7466"></path><path d="M45.8 90.3 L71.6 99" stroke="#857163" stroke-width="1.35" stroke-linecap="round"></path><path d="M44.3 92.2 L70 101" stroke="#8e796a" stroke-width="1.25" stroke-linecap="round"></path><path d="M52.2 79.8 L48.7 89.1" stroke="#8f7b6d" stroke-width="0.95" stroke-linecap="round"></path><path d="M66.5 79.5 L70.1 87.7" stroke="#8f7b6d" stroke-width="0.95" stroke-linecap="round"></path><circle cx="72.4" cy="93.6" r="0.95" fill="#f6f8fb"></circle><circle cx="74.3" cy="95.1" r="1.05" fill="#f7f8fb"></circle><circle cx="76.4" cy="96.7" r="0.9" fill="#f6f8fb"></circle></g></g></g><rect x="6" y="8" width="88" height="72" rx="3.2" fill="none" stroke="#978375" stroke-width="0.8"></rect><g><rect x="76" y="8.5" width="14" height="14" rx="1" fill="#DA291C"></rect><rect x="81.35" y="10.6" width="3.3" height="9.7" fill="#F8FAFC" rx="0.45"></rect><rect x="78.2" y="13.8" width="9.6" height="3.3" fill="#F8FAFC" rx="0.45"></rect></g><text x="50" y="95" fill="#1E293B" text-anchor="middle" font-size="18.2" lengthAdjust="spacingAndGlyphs" textLength="84" style="font-family:&quot;Bebas Neue&quot;, sans-serif;letter-spacing:1.5px">ST. MORITZ</text><text x="50" y="107.2" fill="#4B5563" text-anchor="middle" font-size="7.8" style="font-family:&quot;Jost&quot;, sans-serif;font-weight:500;letter-spacing:1.05px">· ENGADIN, GR ·</text><rect x="3" y="3" width="94" height="118" rx="4" fill="#000" opacity="0.08" filter="url(#grain-st-moritz-ch-gr-ski)"></rect></svg>